<mxfile host="app.diagrams.net" agent="Mozilla/5.0 (X11; Linux x86_64) AppleWebKit/537.36 (KHTML, like Gecko) Chrome/123.0.0.0 Safari/537.36" version="25.0.3">
  <diagram id="C5RBs43oDa-KdzZeNtuy" name="Page-1">
    <mxGraphModel dx="1434" dy="1939" grid="1" gridSize="10" guides="1" tooltips="1" connect="1" arrows="1" fold="1" page="1" pageScale="1" pageWidth="827" pageHeight="1169" math="0" shadow="0">
      <root>
        <mxCell id="WIyWlLk6GJQsqaUBKTNV-0" />
        <mxCell id="WIyWlLk6GJQsqaUBKTNV-1" parent="WIyWlLk6GJQsqaUBKTNV-0" />
        <mxCell id="WIyWlLk6GJQsqaUBKTNV-2" value="" style="rounded=0;html=1;jettySize=auto;orthogonalLoop=1;fontSize=11;endArrow=block;endFill=0;endSize=8;strokeWidth=1;shadow=0;labelBackgroundColor=none;edgeStyle=orthogonalEdgeStyle;" parent="WIyWlLk6GJQsqaUBKTNV-1" source="WIyWlLk6GJQsqaUBKTNV-3" edge="1">
          <mxGeometry relative="1" as="geometry">
            <mxPoint x="220" y="170" as="targetPoint" />
          </mxGeometry>
        </mxCell>
        <mxCell id="mTw4pjSx0gwPeaHjFwzJ-2" value="准备提交" style="edgeLabel;html=1;align=center;verticalAlign=middle;resizable=0;points=[];" vertex="1" connectable="0" parent="WIyWlLk6GJQsqaUBKTNV-2">
          <mxGeometry x="-0.2229" y="3" relative="1" as="geometry">
            <mxPoint as="offset" />
          </mxGeometry>
        </mxCell>
        <mxCell id="WIyWlLk6GJQsqaUBKTNV-3" value="创建任务执行器" style="rounded=1;whiteSpace=wrap;html=1;fontSize=12;glass=0;strokeWidth=1;shadow=0;" parent="WIyWlLk6GJQsqaUBKTNV-1" vertex="1">
          <mxGeometry x="160" y="80" width="120" height="40" as="geometry" />
        </mxCell>
        <mxCell id="WIyWlLk6GJQsqaUBKTNV-4" value="是" style="rounded=0;html=1;jettySize=auto;orthogonalLoop=1;fontSize=11;endArrow=block;endFill=0;endSize=8;strokeWidth=1;shadow=0;labelBackgroundColor=none;edgeStyle=orthogonalEdgeStyle;" parent="WIyWlLk6GJQsqaUBKTNV-1" edge="1">
          <mxGeometry x="-0.5359" y="-10" relative="1" as="geometry">
            <mxPoint as="offset" />
            <mxPoint x="220" y="250" as="sourcePoint" />
            <mxPoint x="220.02857142857147" y="290.0228571428571" as="targetPoint" />
          </mxGeometry>
        </mxCell>
        <mxCell id="WIyWlLk6GJQsqaUBKTNV-7" value="执行结束" style="rounded=1;whiteSpace=wrap;html=1;fontSize=12;glass=0;strokeWidth=1;shadow=0;" parent="WIyWlLk6GJQsqaUBKTNV-1" vertex="1">
          <mxGeometry x="374" y="120" width="80" height="40" as="geometry" />
        </mxCell>
        <mxCell id="WIyWlLk6GJQsqaUBKTNV-11" value="返回失败，任务发起端回收内存" style="rounded=1;whiteSpace=wrap;html=1;fontSize=12;glass=0;strokeWidth=1;shadow=0;" parent="WIyWlLk6GJQsqaUBKTNV-1" vertex="1">
          <mxGeometry x="300" y="660" width="120" height="40" as="geometry" />
        </mxCell>
        <mxCell id="mTw4pjSx0gwPeaHjFwzJ-1" style="edgeStyle=orthogonalEdgeStyle;rounded=0;orthogonalLoop=1;jettySize=auto;html=1;exitX=0.5;exitY=1;exitDx=0;exitDy=0;entryX=0.5;entryY=0;entryDx=0;entryDy=0;" edge="1" parent="WIyWlLk6GJQsqaUBKTNV-1" source="mTw4pjSx0gwPeaHjFwzJ-0" target="WIyWlLk6GJQsqaUBKTNV-3">
          <mxGeometry relative="1" as="geometry" />
        </mxCell>
        <mxCell id="mTw4pjSx0gwPeaHjFwzJ-0" value="创建分布式任务列表" style="rounded=1;whiteSpace=wrap;html=1;fontSize=12;glass=0;strokeWidth=1;shadow=0;" vertex="1" parent="WIyWlLk6GJQsqaUBKTNV-1">
          <mxGeometry x="160" width="120" height="40" as="geometry" />
        </mxCell>
        <mxCell id="mTw4pjSx0gwPeaHjFwzJ-4" style="edgeStyle=orthogonalEdgeStyle;rounded=0;orthogonalLoop=1;jettySize=auto;html=1;entryX=0;entryY=0.5;entryDx=0;entryDy=0;" edge="1" parent="WIyWlLk6GJQsqaUBKTNV-1" target="WIyWlLk6GJQsqaUBKTNV-7">
          <mxGeometry relative="1" as="geometry">
            <mxPoint x="270" y="209.43" as="sourcePoint" />
            <mxPoint x="380" y="209.43" as="targetPoint" />
            <Array as="points">
              <mxPoint x="326" y="209" />
              <mxPoint x="326" y="140" />
            </Array>
          </mxGeometry>
        </mxCell>
        <mxCell id="mTw4pjSx0gwPeaHjFwzJ-5" value="否" style="edgeLabel;html=1;align=center;verticalAlign=middle;resizable=0;points=[];" vertex="1" connectable="0" parent="mTw4pjSx0gwPeaHjFwzJ-4">
          <mxGeometry x="0.1544" relative="1" as="geometry">
            <mxPoint as="offset" />
          </mxGeometry>
        </mxCell>
        <mxCell id="mTw4pjSx0gwPeaHjFwzJ-6" value="剩余任务大于0？" style="rhombus;whiteSpace=wrap;html=1;shadow=0;fontFamily=Helvetica;fontSize=12;align=center;strokeWidth=1;spacing=6;spacingTop=-4;" vertex="1" parent="WIyWlLk6GJQsqaUBKTNV-1">
          <mxGeometry x="170" y="170" width="100" height="80" as="geometry" />
        </mxCell>
        <mxCell id="mTw4pjSx0gwPeaHjFwzJ-9" style="edgeStyle=orthogonalEdgeStyle;rounded=0;orthogonalLoop=1;jettySize=auto;html=1;entryX=0.5;entryY=0;entryDx=0;entryDy=0;" edge="1" parent="WIyWlLk6GJQsqaUBKTNV-1" source="mTw4pjSx0gwPeaHjFwzJ-7" target="mTw4pjSx0gwPeaHjFwzJ-8">
          <mxGeometry relative="1" as="geometry" />
        </mxCell>
        <mxCell id="mTw4pjSx0gwPeaHjFwzJ-7" value="更新内存状态（包括全局内存使用率）" style="rounded=1;whiteSpace=wrap;html=1;fontSize=12;glass=0;strokeWidth=1;shadow=0;" vertex="1" parent="WIyWlLk6GJQsqaUBKTNV-1">
          <mxGeometry x="160" y="290" width="120" height="40" as="geometry" />
        </mxCell>
        <mxCell id="mTw4pjSx0gwPeaHjFwzJ-17" style="edgeStyle=orthogonalEdgeStyle;rounded=0;orthogonalLoop=1;jettySize=auto;html=1;entryX=0.5;entryY=0;entryDx=0;entryDy=0;" edge="1" parent="WIyWlLk6GJQsqaUBKTNV-1" source="mTw4pjSx0gwPeaHjFwzJ-8" target="mTw4pjSx0gwPeaHjFwzJ-14">
          <mxGeometry relative="1" as="geometry" />
        </mxCell>
        <mxCell id="mTw4pjSx0gwPeaHjFwzJ-8" value="根据内存利用率计算任务并行度" style="rounded=1;whiteSpace=wrap;html=1;fontSize=12;glass=0;strokeWidth=1;shadow=0;" vertex="1" parent="WIyWlLk6GJQsqaUBKTNV-1">
          <mxGeometry x="160" y="370" width="120" height="40" as="geometry" />
        </mxCell>
        <mxCell id="mTw4pjSx0gwPeaHjFwzJ-10" value="&lt;div&gt;&lt;br&gt;&lt;/div&gt;&lt;div&gt;任务并行度计算方法：&lt;div&gt;1、用剩余内存除以每个任务内存占用，计算出每批执行的任务数M；&lt;/div&gt;&lt;div&gt;2、如果当前系统内存使用率超过50%，并且不足70%，则用以M/2作为并行提交任务数；&lt;/div&gt;&lt;div&gt;3、如果内存使用率在70%-85%之间，则最多并发执行2个任务；&lt;/div&gt;&lt;div&gt;4、如果大于85%，则最多提交1个任务；&lt;/div&gt;&lt;div&gt;5、如果是第一次执行也提交 1个任务；&lt;/div&gt;&lt;div&gt;6、用执行完成的任务，更新每个任务占用内存的统计值；&lt;/div&gt;&lt;div&gt;&lt;br&gt;&lt;/div&gt;&lt;/div&gt;" style="rounded=1;whiteSpace=wrap;html=1;fontSize=12;glass=0;strokeWidth=1;shadow=0;align=left;" vertex="1" parent="WIyWlLk6GJQsqaUBKTNV-1">
          <mxGeometry x="520" y="-320" width="210" height="250" as="geometry" />
        </mxCell>
        <mxCell id="mTw4pjSx0gwPeaHjFwzJ-18" style="edgeStyle=orthogonalEdgeStyle;rounded=0;orthogonalLoop=1;jettySize=auto;html=1;entryX=0.5;entryY=0;entryDx=0;entryDy=0;" edge="1" parent="WIyWlLk6GJQsqaUBKTNV-1" source="mTw4pjSx0gwPeaHjFwzJ-14" target="WIyWlLk6GJQsqaUBKTNV-11">
          <mxGeometry relative="1" as="geometry" />
        </mxCell>
        <mxCell id="mTw4pjSx0gwPeaHjFwzJ-19" value="是" style="edgeLabel;html=1;align=center;verticalAlign=middle;resizable=0;points=[];" vertex="1" connectable="0" parent="mTw4pjSx0gwPeaHjFwzJ-18">
          <mxGeometry x="-0.1286" y="2" relative="1" as="geometry">
            <mxPoint as="offset" />
          </mxGeometry>
        </mxCell>
        <mxCell id="mTw4pjSx0gwPeaHjFwzJ-21" style="edgeStyle=orthogonalEdgeStyle;rounded=0;orthogonalLoop=1;jettySize=auto;html=1;entryX=0;entryY=0.5;entryDx=0;entryDy=0;" edge="1" parent="WIyWlLk6GJQsqaUBKTNV-1" source="mTw4pjSx0gwPeaHjFwzJ-14" target="mTw4pjSx0gwPeaHjFwzJ-20">
          <mxGeometry relative="1" as="geometry" />
        </mxCell>
        <mxCell id="mTw4pjSx0gwPeaHjFwzJ-22" value="否" style="edgeLabel;html=1;align=center;verticalAlign=middle;resizable=0;points=[];" vertex="1" connectable="0" parent="mTw4pjSx0gwPeaHjFwzJ-21">
          <mxGeometry x="0.0536" y="2" relative="1" as="geometry">
            <mxPoint as="offset" />
          </mxGeometry>
        </mxCell>
        <mxCell id="mTw4pjSx0gwPeaHjFwzJ-14" value="如果当前内存使用率超过90%或者每个任务内存占用超过剩余内存的一半？" style="rhombus;whiteSpace=wrap;html=1;shadow=0;fontFamily=Helvetica;fontSize=12;align=center;strokeWidth=1;spacing=6;spacingTop=-4;" vertex="1" parent="WIyWlLk6GJQsqaUBKTNV-1">
          <mxGeometry x="140" y="460" width="160" height="130" as="geometry" />
        </mxCell>
        <mxCell id="mTw4pjSx0gwPeaHjFwzJ-24" style="edgeStyle=orthogonalEdgeStyle;rounded=0;orthogonalLoop=1;jettySize=auto;html=1;entryX=0;entryY=0.5;entryDx=0;entryDy=0;" edge="1" parent="WIyWlLk6GJQsqaUBKTNV-1" source="mTw4pjSx0gwPeaHjFwzJ-20" target="mTw4pjSx0gwPeaHjFwzJ-23">
          <mxGeometry relative="1" as="geometry" />
        </mxCell>
        <mxCell id="mTw4pjSx0gwPeaHjFwzJ-20" value="提交任务" style="rounded=1;whiteSpace=wrap;html=1;fontSize=12;glass=0;strokeWidth=1;shadow=0;" vertex="1" parent="WIyWlLk6GJQsqaUBKTNV-1">
          <mxGeometry x="380" y="505" width="120" height="40" as="geometry" />
        </mxCell>
        <mxCell id="mTw4pjSx0gwPeaHjFwzJ-25" style="edgeStyle=orthogonalEdgeStyle;rounded=0;orthogonalLoop=1;jettySize=auto;html=1;entryX=0.818;entryY=-0.057;entryDx=0;entryDy=0;entryPerimeter=0;" edge="1" parent="WIyWlLk6GJQsqaUBKTNV-1" source="mTw4pjSx0gwPeaHjFwzJ-23" target="WIyWlLk6GJQsqaUBKTNV-11">
          <mxGeometry relative="1" as="geometry">
            <mxPoint x="400" y="650" as="targetPoint" />
            <Array as="points">
              <mxPoint x="600" y="620" />
              <mxPoint x="400" y="620" />
              <mxPoint x="400" y="658" />
            </Array>
          </mxGeometry>
        </mxCell>
        <mxCell id="mTw4pjSx0gwPeaHjFwzJ-26" value="是" style="edgeLabel;html=1;align=center;verticalAlign=middle;resizable=0;points=[];" vertex="1" connectable="0" parent="mTw4pjSx0gwPeaHjFwzJ-25">
          <mxGeometry x="-0.315" y="1" relative="1" as="geometry">
            <mxPoint as="offset" />
          </mxGeometry>
        </mxCell>
        <mxCell id="mTw4pjSx0gwPeaHjFwzJ-32" style="edgeStyle=orthogonalEdgeStyle;rounded=0;orthogonalLoop=1;jettySize=auto;html=1;entryX=0.5;entryY=1;entryDx=0;entryDy=0;" edge="1" parent="WIyWlLk6GJQsqaUBKTNV-1" source="mTw4pjSx0gwPeaHjFwzJ-23" target="mTw4pjSx0gwPeaHjFwzJ-31">
          <mxGeometry relative="1" as="geometry" />
        </mxCell>
        <mxCell id="mTw4pjSx0gwPeaHjFwzJ-23" value="报错内存不足？" style="rhombus;whiteSpace=wrap;html=1;shadow=0;fontFamily=Helvetica;fontSize=12;align=center;strokeWidth=1;spacing=6;spacingTop=-4;" vertex="1" parent="WIyWlLk6GJQsqaUBKTNV-1">
          <mxGeometry x="550" y="485" width="100" height="80" as="geometry" />
        </mxCell>
        <mxCell id="mTw4pjSx0gwPeaHjFwzJ-31" value="更新内存状态（包括全局内存使用率）" style="rounded=1;whiteSpace=wrap;html=1;fontSize=12;glass=0;strokeWidth=1;shadow=0;" vertex="1" parent="WIyWlLk6GJQsqaUBKTNV-1">
          <mxGeometry x="540" y="370" width="120" height="40" as="geometry" />
        </mxCell>
        <mxCell id="mTw4pjSx0gwPeaHjFwzJ-37" style="edgeStyle=orthogonalEdgeStyle;rounded=0;orthogonalLoop=1;jettySize=auto;html=1;entryX=0.5;entryY=1;entryDx=0;entryDy=0;" edge="1" parent="WIyWlLk6GJQsqaUBKTNV-1" source="mTw4pjSx0gwPeaHjFwzJ-33" target="mTw4pjSx0gwPeaHjFwzJ-36">
          <mxGeometry relative="1" as="geometry" />
        </mxCell>
        <mxCell id="mTw4pjSx0gwPeaHjFwzJ-38" value="是" style="edgeLabel;html=1;align=center;verticalAlign=middle;resizable=0;points=[];" vertex="1" connectable="0" parent="mTw4pjSx0gwPeaHjFwzJ-37">
          <mxGeometry x="-0.0408" y="2" relative="1" as="geometry">
            <mxPoint as="offset" />
          </mxGeometry>
        </mxCell>
        <mxCell id="mTw4pjSx0gwPeaHjFwzJ-40" style="edgeStyle=orthogonalEdgeStyle;rounded=0;orthogonalLoop=1;jettySize=auto;html=1;" edge="1" parent="WIyWlLk6GJQsqaUBKTNV-1" source="mTw4pjSx0gwPeaHjFwzJ-33" target="mTw4pjSx0gwPeaHjFwzJ-6">
          <mxGeometry relative="1" as="geometry" />
        </mxCell>
        <mxCell id="mTw4pjSx0gwPeaHjFwzJ-41" value="否" style="edgeLabel;html=1;align=center;verticalAlign=middle;resizable=0;points=[];" vertex="1" connectable="0" parent="mTw4pjSx0gwPeaHjFwzJ-40">
          <mxGeometry x="-0.5752" y="2" relative="1" as="geometry">
            <mxPoint as="offset" />
          </mxGeometry>
        </mxCell>
        <mxCell id="mTw4pjSx0gwPeaHjFwzJ-33" value="内存使用超过75%？" style="rhombus;whiteSpace=wrap;html=1;shadow=0;fontFamily=Helvetica;fontSize=12;align=center;strokeWidth=1;spacing=6;spacingTop=-4;" vertex="1" parent="WIyWlLk6GJQsqaUBKTNV-1">
          <mxGeometry x="550" y="180" width="100" height="80" as="geometry" />
        </mxCell>
        <mxCell id="mTw4pjSx0gwPeaHjFwzJ-34" style="edgeStyle=orthogonalEdgeStyle;rounded=0;orthogonalLoop=1;jettySize=auto;html=1;" edge="1" parent="WIyWlLk6GJQsqaUBKTNV-1" source="mTw4pjSx0gwPeaHjFwzJ-31">
          <mxGeometry relative="1" as="geometry">
            <mxPoint x="600" y="254" as="targetPoint" />
          </mxGeometry>
        </mxCell>
        <mxCell id="mTw4pjSx0gwPeaHjFwzJ-36" value="通知发起端回收内存" style="rounded=1;whiteSpace=wrap;html=1;fontSize=12;glass=0;strokeWidth=1;shadow=0;" vertex="1" parent="WIyWlLk6GJQsqaUBKTNV-1">
          <mxGeometry x="560" y="70" width="80" height="40" as="geometry" />
        </mxCell>
      </root>
    </mxGraphModel>
  </diagram>
</mxfile>
